<?xml version="1.0" encoding="UTF-8"?><svg id="Layer_1" xmlns="http://www.w3.org/2000/svg" viewBox="0 0 3120.4955521145 719.5044089828"><path d="M3052.6239304939,310.6236731402c-41.8382969092,0-72.5533235137-25.4524700997-72.5533235137-76.3574102992,0-45.6389528304,26.9134063323-78.6977419798,72.5533235137-78.6977419798,45.9315962891,0,67.8716216206,33.0587891495,67.8716216206,78.9904039838v7.6063190497h-109.7099185298c2.6349038415,28.0854823295,17.5550468439,41.5431313015,42.4216551246,41.5431313015,17.8464292282,0,28.6732728507-7.0214957626,34.8133702823-21.063986567h31.3031323944c-8.775001273,31.8886233092-33.0582513383,47.979284511-66.699860892,47.979284511ZM3011.9573943133,217.590778352h77.2347286835c-2.0465013282-21.6493105749-13.1650240585-35.3996215508-36.5681925029-35.3996215508-23.4034651677,0-36.5684892262,13.457648972-40.6665361806,35.3996215508Z"/><path d="M2889.3741308327,308.5356490804v-149.2043230776h30.1364159637v27.5006404971c5.8484183238-17.84615105,19.3101657879-29.2556481698,40.3701094984-29.2556481698h12.2899867354v30.4258140101h-11.7015842222c-29.5483101738,0-39.7914988576,18.7236363411-39.7914988576,47.6866039618v72.8469127783h-31.3034291178Z"/><path d="M2788.7795553221,311.7534845974c-43.880050663,0-73.4283608368-29.2556296246-73.4283608368-77.5275761395s29.5483101738-77.5275761395,73.4283608368-77.5275761395c43.8850949608,0,73.4334051346,29.2556296246,73.4334051346,77.5275761395s-29.5483101738,77.5275761395-73.4334051346,77.5275761395ZM2747.2379818184,234.2259084578c0,31.8886233092,16.9666443307,48.2719465149,41.5415735036,48.2719465149s41.5466178016-16.3833232057,41.5466178016-48.2719465149c0-32.1812853131-16.9716886286-48.2719465149-41.5466178016-48.2719465149s-41.5415735036,16.0906612018-41.5415735036,48.2719465149Z"/><path d="M2548.5914536596,364.7065581038v-205.375232101h30.136712687v28.3781443335c7.3115614367-18.4309928824,24.8666082806-31.011138018,50.3165747767-31.011138018,36.2768101186,0,66.4132260822,24.2823042594,66.4132260822,75.7725684668,0,52.3672858682-30.719774179,76.0647482953-67.5799425129,76.0647482953-25.4550107939,0-40.0831779652-11.4099792954-47.9831419152-24.5749662634v80.7458752868h-31.3034291178ZM2579.6032036696,232.4709007851c0,33.0587891495,19.3098690645,47.393960503,42.4216551246,47.393960503,23.4031684444,0,41.5415735036-14.3351713536,41.5415735036-47.393960503,0-32.4739473171-17.8467259516-46.5169388422-41.5415735036-46.5169388422-23.4034651678,0-42.4216551246,13.7503295212-42.4216551246,46.5169388422Z"/><path d="M2447.9970265107,311.7534845974c-43.8847982374,0-73.4331084112-29.2556296246-73.4331084112-77.5275761395s29.5483101738-77.5275761395,73.4331084112-77.5275761395c43.8849465992,0,73.433256773,29.2556296246,73.433256773,77.5275761395s-29.5483101738,77.5275761395-73.433256773,77.5275761395ZM2406.455453007,234.2259084578c0,31.8886233092,16.9666443307,48.2719465149,41.5415735037,48.2719465149,24.5750775347,0,41.5417218654-16.3833232057,41.5417218654-48.2719465149,0-32.1812853131-16.9666443307-48.2719465149-41.5417218654-48.2719465149-24.5749291729,0-41.5415735037,16.0906612018-41.5415735037,48.2719465149Z"/><path d="M2217.0215931444,308.5356490804v-149.2043230776h30.1316683891v25.7451321037c9.0715763169-17.8461325048,26.6217272246-28.3781257883,50.9049772899-28.3781257883,33.9381845975,0,50.9048289282,19.8938207267,50.9048289282,53.2452718801v98.592044882h-31.3032807561v-93.6182187961c0-20.4791447346-12.2898383737-30.7184760141-29.8399892814-30.7184760141-22.2366003754,0-39.4949238137,16.0906612018-39.4949238137,44.1761249861v80.1605698241h-31.303280756Z"/><path d="M2100.1895710723,309.4938431379c-28.3766978069,0-49.4415374536-15.2131388202-49.4415374536-43.8834444369,0-31.5964434808,24.5749291729-41.5431127563,47.6865668714-44.7614304488l33.0582513383-4.388502078c10.8266952609-1.4628278443,19.8933756415-4.0958215288,19.8933756415-16.382822485,0-13.457648972-9.6549345322-20.7717881933-29.5483101738-20.7717881933-22.5233835468,0-33.9332886614,8.7769670656-36.8600199722,23.6969617063h-31.0116016484c4.6817018931-33.0587891495,30.1316683891-48.5641170707,69.0432339875-48.5641170707,40.0784303907,0,59.6799785629,15.7979899252,59.6799785629,49.4421030826v102.3947222314h-29.2517351299v-26.915297944c-9.6549345322,18.4314750579-27.5015121222,30.1336156365-53.2482020237,30.1336156365ZM2082.3429934824,263.2695848448c0,13.457648972,10.2382927476,19.8938021814,25.4548624322,19.8938021814,24.5749291729,0,43.5883715553-15.7979806526,43.5883715553-40.080284912v-9.361808898c-5.5567392162,2.3408138561-11.9934116916,3.8036417004-23.1116376984,5.5586493731l-19.6016965339,2.6329936846c-11.4099051145,1.4628278443-26.3298997553,4.9738260859-26.3298997553,21.3566485709Z"/><path d="M1852.6946555476,306.2755254454V101.4860995279h38.3233114468l95.3732821044,155.6399755662V101.4860995279h32.1832140153v204.7894259175h-36.8649159084l-97.128104325-157.3954746871v157.3954746871h-31.8867873331Z"/><path d="M1675.1570304612,309.4938431379c-44.1766257069,0-67.2882634052-34.5216169937-67.2882634052-77.5275575943,0-42.7132971418,23.4082127423-77.5275854122,67.8765175568-77.5275854122,23.6949959137,0,39.7866029214,9.946660003,47.6865668714,25.1598173684v-81.330744937h31.303280756v208.0077528826h-29.5483101738v-27.207959948c-6.7283515831,16.6759666645-21.9449212677,30.4262776405-50.0297916052,30.4262776405ZM1639.7603019636,231.3809429904c0,27.5006404971,12.8731965891,49.4421123552,41.249894396,49.4421123552,28.9649519584,0,42.7133342323-22.5268144112,42.7133342323-50.0269541876,0-26.915297944-13.7483822738-48.2719279697-42.4216551246-48.2719279697-28.9648035967,0-41.5415735036,21.9414718581-41.5415735036,48.8567698021Z"/><path d="M1517.1771868447,306.2755254454v-149.2038223568h30.1316683891v27.5001397764c5.8531658984-17.8456503293,19.3098690645-29.2556388972,40.3748570729-29.2556388972h12.2850907993v30.4258047375h-11.7017325839c-29.5483101738,0-39.7866029214,18.7236363411-39.7866029214,47.6871046825v72.8464120576h-31.303280756Z"/><path d="M1416.5826113341,309.4938431379c-43.880050663,0-73.4283608368-29.2556296246-73.4283608368-77.5275575943,0-48.2719465149,29.5483101738-77.5275854122,73.4283608368-77.5275854122,43.8849465991,0,73.4332567729,29.2556388972,73.4332567729,77.5275854122,0,48.2719279697-29.5483101738,77.5275575943-73.4332567729,77.5275575943ZM1375.0410378304,231.9662855435c0,31.8886233092,16.9666443307,48.2719279697,41.5415735037,48.2719279697s41.5466178015-16.3833046605,41.5466178015-48.2719279697c0-32.1813038584-16.9716886286-48.2719465149-41.5466178015-48.2719465149s-41.5415735037,16.0906426566-41.5415735037,48.2719465149Z"/><path d="M1271.5295228813,306.2755254454v-121.7036825804h-23.6998918499v-27.5001397764h23.6998918499v-16.9686379411c0-28.6703056167,13.4567031661-41.8352925847,38.9068180239-41.8352925847h26.0382206476v26.62263594h-18.1382566976c-11.7017325839,0-15.5033528561,4.9733346378-15.5033528561,16.675484489v15.5058100968h29.8399892815v27.5001397764h-29.8399892815v121.7036825804h-31.3034291177Z"/><path d="M1087.1565774242,306.2755254454l58.2166870883-76.6495901277-55.2949258945-72.5542322292h38.6198864907l35.3967284976,48.8567698021,35.401550253-48.8567698021h38.6149905545l-55.2900299583,72.5542322292,58.2166870883,76.6495901277h-38.906743843l-38.0364540945-52.6599478722-38.0316323391,52.6599478722h-38.906743843Z"/><path d="M975.4195141418,311.5449244245c-65.5353722987,0-100.3497730815-50.0290052676-100.3497730815-107.6641258463,0-57.6355842237,34.8144007828-107.3719274736,100.3497730815-107.3719274736,65.8269864786,0,100.6413872614,49.7363432499,100.6413872614,107.3719274736,0,57.6351205787-34.8144007828,107.6641258463-100.6413872614,107.6641258463ZM908.1291155728,203.8807985782c0,43.2995128931,22.2372317949,77.8222253128,67.290398569,77.8222253128,45.3496028624,0,67.5820869321-34.5227124196,67.5820869321-77.8222253128,0-43.2999765382-22.2324840698-77.5300269401-67.5820869321-77.5300269401-45.0531667741,0-67.290398569,34.230050402-67.290398569,77.5300269401Z"/><path d="M392.4031287747,577.6015958366c156.7051198662-13.5052916238,287.8980355021-126.05181173,326.5082043012-279.9936763366l.5930759069-2.1531548473-41.7604070153-14.3862077793-.3938261401,2.9358741008c-17.0395641076,117.2427614462-93.7688986505,214.8163217839-200.1427559315,262.5709866768,13.6890375927-8.5125123304,26.3970334257-18.4932120715,37.8216263488-29.6503830253,118.6841695697-102.36846221,158.2812404157-270.1092633406,98.4942930651-417.200266688l-.884792105-2.0554493934-42.3535200126,12.7225909156,1.3806540061,2.6422292006c55.5477342361,104.7156092563,51.2160917807,228.4173901594-6.5046963161,329.1202697131,5.9116204092-14.5816186871,10.3452986257-29.9464388032,13.0045708769-45.8985487198,35.4550346468-152.1800322956-31.7165422792-311.0154871247-167.146705237-395.0814777474l-1.8716941519-1.1743819061-26.6916797675,34.9378712506,2.6592722512,1.2722085558c107.259613737,52.4557140794,176.993211818,155.4099824728,189.701207651,270.8904479777-3.9378163154-15.9516091958-9.6549716227-31.2187145855-16.8451360961-45.6049223648C496.808077898,117.6341118004,348.5731501864,28.4787613858,189.2082758935,39.5374943498l-2.2649824808.1957261764-.8867393523,43.9412498654,2.9548273083-.4890650806c117.8985758082-20.2579374357,235.402861846,22.4111015556,313.9999960462,108.6300864213-12.5087089758-10.569417523-26.198228744-19.6706661804-40.8736862081-27.3042096027C327.3968538105,83.9681060192,154.6365682799,98.3543045259,32.4047759913,200.3299513099l-1.6744032232,1.4677052352,25.2144979285,36.0145993541,2.0685747678-2.1531733925c83.2281844807-85.0444423551,203.0961598947-119.1017984904,317.4487426446-95.5161544242-5.2202919647-.3913503541-10.4405839293-.5872712553-15.7590913413-.5872712553-11.1299465813,0-22.0630171831.8809068829-32.7005141825,2.4467997476C170.3961417967,155.4100334721,39.200935827,267.9546248762.5909707717,421.8964709376l-.5909707717,2.1531733926,41.7617839973,14.3861892341.3939791381-2.9358555556c17.0395177446-117.3404576275,93.7668864949-214.8138738158,200.1412444966-262.5724332034-13.6905212097,8.5144595777-26.3965883406,18.4966058454-37.8216263488,29.6532946237-118.784832985,102.3669971382-158.281351687,270.1077797236-98.4948123311,417.1992837918l.8862571768,2.0564415623,42.2543494869-12.7226094608-1.3792074795-2.6446586234c-55.5510909196-104.8142790613-51.2170468591-228.4164165358,6.5008203666-329.1193146346-5.9096638893,14.5816372323-10.3419048518,29.9464573484-13.0011585577,45.898567265-35.4584376934,152.1800137503,31.7150679347,311.0140498707,167.1457316134,395.0793513504l1.8712119764,1.1765083031,26.6921433978-34.9397002722-2.6592351607-1.2688634631c-107.261097354-52.4558021691-176.9951776106-155.4129636158-189.7012354689-270.8919640489,3.9397728353,15.9516277411,9.6525421998,31.2187145855,16.8427159458,45.6049038196,57.9147710232,135.8351533161,193.3454161566,222.9389395593,342.2687421691,222.9389395593,8.8673935234,0,17.7299652915-.2965750439,26.5924999692-.8848291954l2.2654461111-.1944280115.8896509508-43.9432527484-2.9557731142.4910030554c-117.8990765289,20.2579745261-235.403381112-22.4115559134-314.0019432935-108.6305500516,12.5086718853,10.5689168023,26.1996752706,19.6696832842,40.8751512799,27.3071212011,58.1121106331,34.7404134149,123.3157437525,51.8675109272,188.5193768719,51.8675109272,85.8859962963,0,171.7744034704-29.6552418711,241.313499359-87.6871444586l1.6724072947-1.4681874108-25.211845963-36.0151000749-2.0709810092,2.1531733925c-83.2291720133,85.0439694522-203.0961923488,119.1037364652-317.5469720008,95.5156722487,5.2202919647.3937890496,10.4405839293.5882541515,15.7590913413.5882541515,11.1299465813,0,22.0630171831-.8799332592,32.7005141825-2.4453717662h-.0986976228ZM157.7887722886,359.7522044914c0-110.6855450873,90.6152666604-200.6235962102,201.9143244792-200.6235962102s201.9138608489,90.0362480249,201.9138608489,200.6235962102c0,110.5878118156-90.6148030301,200.6250427368-201.9138608489,200.6250427368s-201.9143244792-90.0372309212-201.9143244792-200.6250427368Z"/><path d="M2551.750578058,620.6280140597c-33.353981252,0-65.2426428225-14.6269633194-68.7503016947-49.4425082267h31.5924050121c3.2193838691,17.553905344,18.7270766205,24.57702858,38.3271945571,24.57702858,17.8462885006,0,28.6692777015-5.5577448666,28.6692777015-18.1385542813s-11.407755514-16.676990626-27.2077140461-19.6000592487l-20.1846494981-3.5115909619c-23.6962991479-4.388446992-47.6888548543-13.165458352-47.6888548543-43.8848220479,0-29.838575576,23.4040333672-45.0540025467,59.0963756167-45.0540025467,36.8618748757,0,60.5619300498,16.0923416887,63.4850573604,47.396354322h-31.3041300091c-1.7538294361-16.0924003766-14.6269046315-23.1116502106-33.3499904742-23.1116502106-18.1385542813,0-27.7924803592,6.7269253654-27.7924803592,18.430820062,0,13.165458352,11.1154897333,17.2616395633,26.6231824847,20.184708186l20.7694158112,3.8039154306c23.9923209548,4.388446992,47.9808858834,11.9961604774,47.9808858834,41.8347947413,0,31.596278414-26.9154482654,46.515566202-60.2656734913,46.515566202Z"/><path d="M2399.7998380155,620.6280140597c-41.8346186776,0-72.5539823736-25.450128584-72.5539823736-76.354200466,0-45.638651484,26.9154482654-78.7003082673,72.5539823736-78.7003082673,45.9310346405,0,67.8735043525,33.0616567833,67.8735043525,78.992632736v7.6038987713h-109.7081230301c2.634617556,28.08474614,17.5537879682,41.5424702727,42.4231410168,41.5424702727,17.8425324745,0,28.6695124531-7.019249834,34.8117888812-21.061622904h31.3038952575c-8.7768939841,31.8886028827-33.0577246935,47.9771298573-66.7042064779,47.9771298573ZM2359.1342824608,527.5968229677h77.234929898c-2.0460952168-21.6500865553-13.1653409761-35.4001351567-36.5693743433-35.4001351567-23.4037986156,0-36.5693743433,13.4577241327-40.6655555546,35.4001351567Z"/><path d="M2269.9608236109,617.4126209683v-149.2044980859h31.3041300091v149.2044980859h-31.3041300091ZM2268.7917604879,443.3387698338v-34.227081256h33.3499904742v34.227081256h-33.3499904742Z"/><path d="M2162.8680685031,676.8013210537c-37.4501624633,0-66.9964722586-18.7231445307-71.0926534699-52.66177472h31.5963957898c2.3383609975,16.0924003766,15.2116709446,27.5001558906,39.7885234608,27.5001558906,26.3271606779,0,41.5425876485-12.5808681026,41.5425876485-39.496316368v-27.5001558906c-9.0691597648,18.43087875-28.6732684792,27.7962950733-50.0272158519,27.7962950733-35.107810688,0-66.4117059455-23.4077893933-66.4117059455-72.5541584373,0-50.6117474133,32.7654589128-74.3118612753,68.7503016946-74.3118612753,24.2845867355,0,40.0807892416,11.411570228,47.396354322,24.57702858v-21.942411024h30.7153729182v140.7198111947c0,46.2233004213-31.3038952574,67.8733869766-72.2579605668,67.8733869766ZM2120.1526617056,540.1776323824c0,30.715548982,19.0153516235,45.3463857033,41.5423528968,45.3463857033,21.3577033988,0,42.1308752361-12.8731338833,42.1308752361-45.3463857033,0-31.3039539454-19.0191076496-46.2232417334-41.2538431423-46.2232417334-22.5232452472,0-42.4193849907,14.3346388507-42.4193849907,46.2232417334Z"/><path d="M1997.0327084867,620.6280140597c-43.8847046721,0-73.4310144674-29.2539853266-73.4310144674-77.5272543666,0-48.269454326,29.5463097953-77.5272543667,73.4310144674-77.5272543667,43.880948646,0,73.431249219,29.2578000407,73.431249219,77.5272543667,0,48.27326904-29.550300573,77.5272543666-73.431249219,77.5272543666ZM1955.4903555898,543.100759693c0,31.8886028826,16.9655003806,48.27326904,41.5423528969,48.27326904,24.5733312418,0,41.5425876485-16.3846661573,41.5425876485-48.27326904,0-32.1809273513-16.9692564067-48.269454326-41.5425876485-48.269454326-24.5768525163,0-41.5423528969,16.0885269747-41.5423528969,48.269454326Z"/><path d="M1865.4783639135,617.4126209683v-208.0086079219h31.3038952574v208.0086079219h-31.3038952574Z"/><path d="M1764.8856467196,620.6280140597c-43.880948646,0-73.4310144674-29.2539853266-73.4310144674-77.5272543666,0-48.269454326,29.5500658214-77.5272543667,73.4310144674-77.5272543667,43.8847046721,0,73.4310144674,29.2578000407,73.4310144674,77.5272543667,0,48.27326904-29.5463097953,77.5272543666-73.4310144674,77.5272543666ZM1723.3430590711,543.100759693c0,31.8886028826,16.9692564067,48.27326904,41.5425876485,48.27326904,24.5770872679,0,41.5423528969-16.3846661573,41.5423528969-48.27326904,0-32.1809273513-16.965265629-48.269454326-41.5423528969-48.269454326-24.5733312418,0-41.5425876485,16.0885269747-41.5425876485,48.269454326Z"/><path d="M1533.9076480755,617.4126209683v-149.2044980859h30.1348321345v25.7462677666c9.0691597648-17.8462298127,26.6231824847-28.3808853226,50.9040131941-28.3808853226,33.9386301893,0,50.9040131941,19.8961984314,50.9040131941,53.2463649693v98.5927506726h-31.3038952574v-93.6196547433c0-20.4770326547-12.284670232-30.719363696-29.838575576-30.719363696-22.2347354926,0-39.4963750559,16.0924003766-39.4963750559,44.1771465166v80.1618719226h-31.3040126333Z"/><path d="M1366.1261970372,617.4126209683v-208.0086079219h31.3040126333v83.377265014c9.0691597648-17.2577661614,26.0346601455-27.2077727341,49.7348326953-27.2077727341,33.9347567873,0,50.9040131941,19.8961984314,50.9040131941,53.2463649693v98.5927506726h-31.3040126333v-93.6196547433c0-20.4770326547-12.2885436339-30.719363696-29.8424489779-30.719363696-22.2346181168,0-39.4923842782,16.0924003766-39.4923842782,44.1771465166v80.1618719226h-31.3040126333Z"/><path d="M1271.4757478817,620.6280140597c-48.269395638,0-71.0887800679-34.5194057246-71.0887800679-76.354200466,0-43.5924975793,24.8654796466-78.7003082673,73.7233976239-78.7003082673,37.7386722179,0,62.8964176454,20.7731718373,64.9465036399,55.292518874h-31.8886615705c-1.1691804988-18.1385542813-14.04237307-27.7924216713-33.0578420693-27.7924216713-30.1347147587,0-41.8347360534,21.942411024-41.8347360534,50.0271571639,0,28.6732097913,11.9922870755,49.7348326953,40.6616821528,49.7348326953,20.1885229,0,32.4770665339-9.9461918587,34.23089597-28.961660858h31.8886615705c-2.6347349318,35.107810688-29.2579174165,56.7540825293-67.5811211959,56.7540825293Z"/><path d="M1115.7250831865,620.6280140597c-41.8348534293,0-72.5542171252-25.450128584-72.5542171252-76.354200466,0-45.638651484,26.9155656412-78.7003082673,72.5542171252-78.7003082673,45.9309172647,0,67.8733869766,33.0616567833,67.8733869766,78.992632736v7.6038987713h-109.7082404059c2.6308615299,28.08474614,17.5540227198,41.5424702727,42.4195023665,41.5424702727,17.8461711248,0,28.6692777015-7.019249834,34.8155449073-21.061622904h31.3038952574c-8.7768939841,31.8886028827-33.0615980954,47.9771298573-66.704089102,47.9771298573ZM1075.0595276318,527.5968229677h77.234929898c-2.0499686187-21.6500865553-13.165458352-35.4001351567-36.5693743433-35.4001351567s-36.5693743434,13.4577241327-40.6655555547,35.4001351567Z"/><path d="M953.0197747402,617.4126209683v-174.6546266699h-71.805699145v-30.1347147587h175.7923256412v30.1347147587h-71.805699145v174.6546266699h-32.1809273513Z"/></svg>